<svg width="1343" height="307" viewBox="0 0 1343 307" fill="none" xmlns="http://www.w3.org/2000/svg">
<g style="mix-blend-mode:hard-light" filter="url(#filter0_f_9_4)">
<path d="M241.077 226.594C273.13 226.594 299.158 200.567 299.158 168.514V105.612C299.158 73.5595 273.13 47.5315 241.077 47.5315H107.322C93.103 47.5315 81.776 58.8585 81.776 73.0775V218.642C81.776 222.98 85.391 226.594 89.729 226.594C94.067 226.594 97.682 222.98 97.682 218.642V75.0055C97.682 68.4985 102.743 63.4375 109.25 63.4375H241.077C264.454 63.4375 283.252 82.2355 283.252 105.612V168.514C283.252 191.65 264.454 210.689 241.077 210.689H130.458C126.12 210.689 122.505 214.304 122.505 218.642C122.505 222.98 126.12 226.594 130.458 226.594H241.077Z" stroke="#FF8A00" stroke-opacity="0.69" stroke-width="13.4417"/>
<path d="M316.843 63.4375H477.349C481.687 63.4375 485.302 59.8225 485.302 55.4845C485.302 51.1465 481.687 47.5315 477.349 47.5315H316.843C312.505 47.5315 308.89 51.1465 308.89 55.4845C308.89 59.8225 312.505 63.4375 316.843 63.4375ZM484.097 210.689H335.4C329.616 210.689 324.796 205.869 324.796 200.085V134.291C324.796 128.507 329.616 123.688 335.4 123.688H462.889C467.227 123.688 470.842 120.072 470.842 115.734C470.842 111.396 467.227 107.782 462.889 107.782H335.4C320.699 107.782 308.89 119.59 308.89 134.291V200.085C308.89 214.786 320.699 226.594 335.4 226.594H484.097C488.435 226.594 492.05 222.98 492.05 218.642C492.05 214.304 488.435 210.689 484.097 210.689Z" stroke="#FF8A00" stroke-opacity="0.69" stroke-width="13.4417"/>
<path d="M513.693 47.5315H501.643L520.682 91.8755C521.887 94.7675 524.779 96.6955 527.912 96.6955H540.203L520.923 52.3515C519.718 49.4595 516.826 47.5315 513.693 47.5315ZM724.809 47.5315C721.435 47.5315 718.543 49.4595 717.338 52.3515L659.257 188.275C653.473 201.771 639.977 210.689 625.276 210.689H613.226C598.525 210.689 585.27 201.771 579.486 188.275L559.724 142.727C558.519 139.593 555.627 137.907 552.494 137.907H540.203L564.785 194.542C573.22 214.063 592.259 226.594 613.226 226.594H625.276C646.484 226.594 665.523 214.063 673.958 194.542L736.859 47.5315H724.809Z" stroke="#FF8A00" stroke-opacity="0.69" stroke-width="13.4417"/>
<path d="M811.219 153.572C819.895 153.572 828.33 150.438 835.319 144.414L889.544 96.6955H868.095C866.167 96.6955 864.239 97.4185 862.793 98.6235L824.715 132.364C817.003 139.352 805.194 139.352 797.482 132.364L759.404 98.6235C757.958 97.4185 756.03 96.6955 754.102 96.6955H733.376L786.878 144.414C793.867 150.438 802.543 153.572 811.219 153.572ZM836.765 168.996C822.546 155.018 799.651 155.259 785.673 168.996L727.11 226.594H746.39C748.559 226.594 750.487 225.631 751.933 224.185L796.759 180.322C804.712 172.61 817.485 172.61 825.438 180.322L870.264 224.185C871.71 225.631 873.879 226.594 875.807 226.594H895.328L836.765 168.996Z" stroke="#FF8A00" stroke-opacity="0.69" stroke-width="13.4417"/>
</g>
<g style="mix-blend-mode:hard-light" filter="url(#filter1_f_9_4)">
<path d="M241.077 226.594C273.13 226.594 299.158 200.567 299.158 168.514V105.612C299.158 73.5595 273.13 47.5315 241.077 47.5315H107.322C93.103 47.5315 81.776 58.8585 81.776 73.0775V218.642C81.776 222.98 85.391 226.594 89.729 226.594C94.067 226.594 97.682 222.98 97.682 218.642V75.0055C97.682 68.4985 102.743 63.4375 109.25 63.4375H241.077C264.454 63.4375 283.252 82.2355 283.252 105.612V168.514C283.252 191.65 264.454 210.689 241.077 210.689H130.458C126.12 210.689 122.505 214.304 122.505 218.642C122.505 222.98 126.12 226.594 130.458 226.594H241.077Z" stroke="#FF8A00" stroke-opacity="0.69" stroke-width="17.5776"/>
<path d="M316.843 63.4375H477.349C481.687 63.4375 485.302 59.8225 485.302 55.4845C485.302 51.1465 481.687 47.5315 477.349 47.5315H316.843C312.505 47.5315 308.89 51.1465 308.89 55.4845C308.89 59.8225 312.505 63.4375 316.843 63.4375ZM484.097 210.689H335.4C329.616 210.689 324.796 205.869 324.796 200.085V134.291C324.796 128.507 329.616 123.688 335.4 123.688H462.889C467.227 123.688 470.842 120.072 470.842 115.734C470.842 111.396 467.227 107.782 462.889 107.782H335.4C320.699 107.782 308.89 119.59 308.89 134.291V200.085C308.89 214.786 320.699 226.594 335.4 226.594H484.097C488.435 226.594 492.05 222.98 492.05 218.642C492.05 214.304 488.435 210.689 484.097 210.689Z" stroke="#FF8A00" stroke-opacity="0.69" stroke-width="17.5776"/>
<path d="M513.693 47.5315H501.643L520.682 91.8755C521.887 94.7675 524.779 96.6955 527.912 96.6955H540.203L520.923 52.3515C519.718 49.4595 516.826 47.5315 513.693 47.5315ZM724.809 47.5315C721.435 47.5315 718.543 49.4595 717.338 52.3515L659.257 188.275C653.473 201.771 639.977 210.689 625.276 210.689H613.226C598.525 210.689 585.27 201.771 579.486 188.275L559.724 142.727C558.519 139.593 555.627 137.907 552.494 137.907H540.203L564.785 194.542C573.22 214.063 592.259 226.594 613.226 226.594H625.276C646.484 226.594 665.523 214.063 673.958 194.542L736.859 47.5315H724.809Z" stroke="#FF8A00" stroke-opacity="0.69" stroke-width="17.5776"/>
<path d="M811.219 153.572C819.895 153.572 828.33 150.438 835.319 144.414L889.544 96.6955H868.095C866.167 96.6955 864.239 97.4185 862.793 98.6235L824.715 132.364C817.003 139.352 805.194 139.352 797.482 132.364L759.404 98.6235C757.958 97.4185 756.03 96.6955 754.102 96.6955H733.376L786.878 144.414C793.867 150.438 802.543 153.572 811.219 153.572ZM836.765 168.996C822.546 155.018 799.651 155.259 785.673 168.996L727.11 226.594H746.39C748.559 226.594 750.487 225.631 751.933 224.185L796.759 180.322C804.712 172.61 817.485 172.61 825.438 180.322L870.264 224.185C871.71 225.631 873.879 226.594 875.807 226.594H895.328L836.765 168.996Z" stroke="#FF8A00" stroke-opacity="0.69" stroke-width="17.5776"/>
</g>
<g style="mix-blend-mode:hard-light" filter="url(#filter2_ddi_9_4)">
<path d="M241.077 226.594C273.13 226.594 299.158 200.567 299.158 168.514V105.612C299.158 73.5595 273.13 47.5315 241.077 47.5315H107.322C93.103 47.5315 81.776 58.8585 81.776 73.0775V218.642C81.776 222.98 85.391 226.594 89.729 226.594C94.067 226.594 97.682 222.98 97.682 218.642V75.0055C97.682 68.4985 102.743 63.4375 109.25 63.4375H241.077C264.454 63.4375 283.252 82.2355 283.252 105.612V168.514C283.252 191.65 264.454 210.689 241.077 210.689H130.458C126.12 210.689 122.505 214.304 122.505 218.642C122.505 222.98 126.12 226.594 130.458 226.594H241.077Z" stroke="#FFC940" stroke-opacity="0.18" stroke-width="13.4417"/>
<path d="M316.843 63.4375H477.349C481.687 63.4375 485.302 59.8225 485.302 55.4845C485.302 51.1465 481.687 47.5315 477.349 47.5315H316.843C312.505 47.5315 308.89 51.1465 308.89 55.4845C308.89 59.8225 312.505 63.4375 316.843 63.4375ZM484.097 210.689H335.4C329.616 210.689 324.796 205.869 324.796 200.085V134.291C324.796 128.507 329.616 123.688 335.4 123.688H462.889C467.227 123.688 470.842 120.072 470.842 115.734C470.842 111.396 467.227 107.782 462.889 107.782H335.4C320.699 107.782 308.89 119.59 308.89 134.291V200.085C308.89 214.786 320.699 226.594 335.4 226.594H484.097C488.435 226.594 492.05 222.98 492.05 218.642C492.05 214.304 488.435 210.689 484.097 210.689Z" stroke="#FFC940" stroke-opacity="0.18" stroke-width="13.4417"/>
<path d="M513.693 47.5315H501.643L520.682 91.8755C521.887 94.7675 524.779 96.6955 527.912 96.6955H540.203L520.923 52.3515C519.718 49.4595 516.826 47.5315 513.693 47.5315ZM724.809 47.5315C721.435 47.5315 718.543 49.4595 717.338 52.3515L659.257 188.275C653.473 201.771 639.977 210.689 625.276 210.689H613.226C598.525 210.689 585.27 201.771 579.486 188.275L559.724 142.727C558.519 139.593 555.627 137.907 552.494 137.907H540.203L564.785 194.542C573.22 214.063 592.259 226.594 613.226 226.594H625.276C646.484 226.594 665.523 214.063 673.958 194.542L736.859 47.5315H724.809Z" stroke="#FFC940" stroke-opacity="0.18" stroke-width="13.4417"/>
<path d="M811.219 153.572C819.895 153.572 828.33 150.438 835.319 144.414L889.544 96.6955H868.095C866.167 96.6955 864.239 97.4185 862.793 98.6235L824.715 132.364C817.003 139.352 805.194 139.352 797.482 132.364L759.404 98.6235C757.958 97.4185 756.03 96.6955 754.102 96.6955H733.376L786.878 144.414C793.867 150.438 802.543 153.572 811.219 153.572ZM836.765 168.996C822.546 155.018 799.651 155.259 785.673 168.996L727.11 226.594H746.39C748.559 226.594 750.487 225.631 751.933 224.185L796.759 180.322C804.712 172.61 817.485 172.61 825.438 180.322L870.264 224.185C871.71 225.631 873.879 226.594 875.807 226.594H895.328L836.765 168.996Z" stroke="#FFC940" stroke-opacity="0.18" stroke-width="13.4417"/>
</g>
<g filter="url(#filter3_f_9_4)">
<path d="M241.077 226.594C273.13 226.594 299.158 200.567 299.158 168.514V105.612C299.158 73.5595 273.13 47.5315 241.077 47.5315H107.322C93.103 47.5315 81.776 58.8585 81.776 73.0775V218.642C81.776 222.98 85.391 226.594 89.729 226.594C94.067 226.594 97.682 222.98 97.682 218.642V75.0055C97.682 68.4985 102.743 63.4375 109.25 63.4375H241.077C264.454 63.4375 283.252 82.2355 283.252 105.612V168.514C283.252 191.65 264.454 210.689 241.077 210.689H130.458C126.12 210.689 122.505 214.304 122.505 218.642C122.505 222.98 126.12 226.594 130.458 226.594H241.077Z" stroke="#FFD56A" stroke-width="8.27179"/>
<path d="M316.843 63.4375H477.349C481.687 63.4375 485.302 59.8225 485.302 55.4845C485.302 51.1465 481.687 47.5315 477.349 47.5315H316.843C312.505 47.5315 308.89 51.1465 308.89 55.4845C308.89 59.8225 312.505 63.4375 316.843 63.4375ZM484.097 210.689H335.4C329.616 210.689 324.796 205.869 324.796 200.085V134.291C324.796 128.507 329.616 123.688 335.4 123.688H462.889C467.227 123.688 470.842 120.072 470.842 115.734C470.842 111.396 467.227 107.782 462.889 107.782H335.4C320.699 107.782 308.89 119.59 308.89 134.291V200.085C308.89 214.786 320.699 226.594 335.4 226.594H484.097C488.435 226.594 492.05 222.98 492.05 218.642C492.05 214.304 488.435 210.689 484.097 210.689Z" stroke="#FFD56A" stroke-width="8.27179"/>
<path d="M513.693 47.5315H501.643L520.682 91.8755C521.887 94.7675 524.779 96.6955 527.912 96.6955H540.203L520.923 52.3515C519.718 49.4595 516.826 47.5315 513.693 47.5315ZM724.809 47.5315C721.435 47.5315 718.543 49.4595 717.338 52.3515L659.257 188.275C653.473 201.771 639.977 210.689 625.276 210.689H613.226C598.525 210.689 585.27 201.771 579.486 188.275L559.724 142.727C558.519 139.593 555.627 137.907 552.494 137.907H540.203L564.785 194.542C573.22 214.063 592.259 226.594 613.226 226.594H625.276C646.484 226.594 665.523 214.063 673.958 194.542L736.859 47.5315H724.809Z" stroke="#FFD56A" stroke-width="8.27179"/>
<path d="M811.219 153.572C819.895 153.572 828.33 150.438 835.319 144.414L889.544 96.6955H868.095C866.167 96.6955 864.239 97.4185 862.793 98.6235L824.715 132.364C817.003 139.352 805.194 139.352 797.482 132.364L759.404 98.6235C757.958 97.4185 756.03 96.6955 754.102 96.6955H733.376L786.878 144.414C793.867 150.438 802.543 153.572 811.219 153.572ZM836.765 168.996C822.546 155.018 799.651 155.259 785.673 168.996L727.11 226.594H746.39C748.559 226.594 750.487 225.631 751.933 224.185L796.759 180.322C804.712 172.61 817.485 172.61 825.438 180.322L870.264 224.185C871.71 225.631 873.879 226.594 875.807 226.594H895.328L836.765 168.996Z" stroke="#FFD56A" stroke-width="8.27179"/>
</g>
<g filter="url(#filter4_f_9_4)">
<path d="M241.077 226.594C273.13 226.594 299.158 200.567 299.158 168.514V105.612C299.158 73.5595 273.13 47.5315 241.077 47.5315H107.322C93.103 47.5315 81.776 58.8585 81.776 73.0775V218.642C81.776 222.98 85.391 226.594 89.729 226.594C94.067 226.594 97.682 222.98 97.682 218.642V75.0055C97.682 68.4985 102.743 63.4375 109.25 63.4375H241.077C264.454 63.4375 283.252 82.2355 283.252 105.612V168.514C283.252 191.65 264.454 210.689 241.077 210.689H130.458C126.12 210.689 122.505 214.304 122.505 218.642C122.505 222.98 126.12 226.594 130.458 226.594H241.077Z" stroke="white" stroke-width="4.1359"/>
<path d="M316.843 63.4375H477.349C481.687 63.4375 485.302 59.8225 485.302 55.4845C485.302 51.1465 481.687 47.5315 477.349 47.5315H316.843C312.505 47.5315 308.89 51.1465 308.89 55.4845C308.89 59.8225 312.505 63.4375 316.843 63.4375ZM484.097 210.689H335.4C329.616 210.689 324.796 205.869 324.796 200.085V134.291C324.796 128.507 329.616 123.688 335.4 123.688H462.889C467.227 123.688 470.842 120.072 470.842 115.734C470.842 111.396 467.227 107.782 462.889 107.782H335.4C320.699 107.782 308.89 119.59 308.89 134.291V200.085C308.89 214.786 320.699 226.594 335.4 226.594H484.097C488.435 226.594 492.05 222.98 492.05 218.642C492.05 214.304 488.435 210.689 484.097 210.689Z" stroke="white" stroke-width="4.1359"/>
<path d="M513.693 47.5315H501.643L520.682 91.8755C521.887 94.7675 524.779 96.6955 527.912 96.6955H540.203L520.923 52.3515C519.718 49.4595 516.826 47.5315 513.693 47.5315ZM724.809 47.5315C721.435 47.5315 718.543 49.4595 717.338 52.3515L659.257 188.275C653.473 201.771 639.977 210.689 625.276 210.689H613.226C598.525 210.689 585.27 201.771 579.486 188.275L559.724 142.727C558.519 139.593 555.627 137.907 552.494 137.907H540.203L564.785 194.542C573.22 214.063 592.259 226.594 613.226 226.594H625.276C646.484 226.594 665.523 214.063 673.958 194.542L736.859 47.5315H724.809Z" stroke="white" stroke-width="4.1359"/>
<path d="M811.219 153.572C819.895 153.572 828.33 150.438 835.319 144.414L889.544 96.6955H868.095C866.167 96.6955 864.239 97.4185 862.793 98.6235L824.715 132.364C817.003 139.352 805.194 139.352 797.482 132.364L759.404 98.6235C757.958 97.4185 756.03 96.6955 754.102 96.6955H733.376L786.878 144.414C793.867 150.438 802.543 153.572 811.219 153.572ZM836.765 168.996C822.546 155.018 799.651 155.259 785.673 168.996L727.11 226.594H746.39C748.559 226.594 750.487 225.631 751.933 224.185L796.759 180.322C804.712 172.61 817.485 172.61 825.438 180.322L870.264 224.185C871.71 225.631 873.879 226.594 875.807 226.594H895.328L836.765 168.996Z" stroke="white" stroke-width="4.1359"/>
</g>
<g style="mix-blend-mode:hard-light" filter="url(#filter5_f_9_4)">
<ellipse cx="1131.54" cy="158.5" rx="126.323" ry="89.1" fill="#128DFF" fill-opacity="0.194"/>
</g>
<g style="mix-blend-mode:hard-light" filter="url(#filter6_f_9_4)">
<path d="M1050.02 232.75C1053.61 232.75 1056.61 229.756 1056.61 226.163V101.415C1056.61 92.0343 1049.02 84.25 1039.64 84.25H1032.86C1029.26 84.25 1026.27 87.244 1026.27 91.0363C1026.27 94.629 1029.26 97.623 1032.86 97.623H1039.64C1041.64 97.623 1043.43 99.2198 1043.43 101.415V226.163C1043.43 229.756 1046.23 232.75 1050.02 232.75Z" stroke="#20A1FF" stroke-width="4.14103"/>
<path d="M1078.24 210.595H1072.65C1068.26 210.595 1064.67 214.188 1064.67 218.579V223.968C1064.67 228.558 1068.26 232.151 1072.65 232.151H1078.24C1082.63 232.151 1086.22 228.558 1086.22 223.968V218.579C1086.22 214.188 1082.63 210.595 1078.24 210.595Z" stroke="#20A1FF" stroke-width="4.14103"/>
<path d="M1131.42 232.75H1131.62L1199.68 232.55C1220.24 232.55 1236.81 215.984 1236.81 195.425V121.575C1236.81 101.016 1220.24 84.25 1199.68 84.25H1131.42C1110.86 84.25 1094.3 101.016 1094.3 121.575V124.569C1094.3 128.161 1097.29 131.155 1100.88 131.155C1104.48 131.155 1107.47 128.161 1107.47 124.569V121.575C1107.47 108.401 1118.25 97.623 1131.42 97.623H1199.68C1212.86 97.623 1223.63 108.401 1223.63 121.575V195.425C1223.63 208.599 1212.86 219.377 1199.68 219.377L1131.42 219.577C1125.03 219.577 1119.05 216.982 1114.46 212.391C1110.06 208 1107.47 201.813 1107.47 195.425V165.685C1107.47 162.093 1104.48 159.099 1100.88 159.099C1097.29 159.099 1094.3 162.093 1094.3 165.685V194.028C1094.3 202.81 1096.69 211.393 1102.08 218.179C1109.27 227.56 1120.04 232.75 1131.42 232.75Z" stroke="#20A1FF" stroke-width="4.14103"/>
</g>
<g style="mix-blend-mode:hard-light" filter="url(#filter7_f_9_4)">
<path d="M1050.02 232.75C1053.61 232.75 1056.61 229.756 1056.61 226.163V101.415C1056.61 92.0343 1049.02 84.25 1039.64 84.25H1032.86C1029.26 84.25 1026.27 87.244 1026.27 91.0363C1026.27 94.629 1029.26 97.623 1032.86 97.623H1039.64C1041.64 97.623 1043.43 99.2198 1043.43 101.415V226.163C1043.43 229.756 1046.23 232.75 1050.02 232.75Z" stroke="#20A1FF" stroke-width="5.4152"/>
<path d="M1078.24 210.595H1072.65C1068.26 210.595 1064.67 214.188 1064.67 218.579V223.968C1064.67 228.558 1068.26 232.151 1072.65 232.151H1078.24C1082.63 232.151 1086.22 228.558 1086.22 223.968V218.579C1086.22 214.188 1082.63 210.595 1078.24 210.595Z" stroke="#20A1FF" stroke-width="5.4152"/>
<path d="M1131.42 232.75H1131.62L1199.68 232.55C1220.24 232.55 1236.81 215.984 1236.81 195.425V121.575C1236.81 101.016 1220.24 84.25 1199.68 84.25H1131.42C1110.86 84.25 1094.3 101.016 1094.3 121.575V124.569C1094.3 128.161 1097.29 131.155 1100.88 131.155C1104.48 131.155 1107.47 128.161 1107.47 124.569V121.575C1107.47 108.401 1118.25 97.623 1131.42 97.623H1199.68C1212.86 97.623 1223.63 108.401 1223.63 121.575V195.425C1223.63 208.599 1212.86 219.377 1199.68 219.377L1131.42 219.577C1125.03 219.577 1119.05 216.982 1114.46 212.391C1110.06 208 1107.47 201.813 1107.47 195.425V165.685C1107.47 162.093 1104.48 159.099 1100.88 159.099C1097.29 159.099 1094.3 162.093 1094.3 165.685V194.028C1094.3 202.81 1096.69 211.393 1102.08 218.179C1109.27 227.56 1120.04 232.75 1131.42 232.75Z" stroke="#20A1FF" stroke-width="5.4152"/>
</g>
<g style="mix-blend-mode:hard-light" filter="url(#filter8_ddi_9_4)">
<path d="M1050.02 232.75C1053.61 232.75 1056.61 229.756 1056.61 226.163V101.415C1056.61 92.0343 1049.02 84.25 1039.64 84.25H1032.86C1029.26 84.25 1026.27 87.244 1026.27 91.0363C1026.27 94.629 1029.26 97.623 1032.86 97.623H1039.64C1041.64 97.623 1043.43 99.2198 1043.43 101.415V226.163C1043.43 229.756 1046.23 232.75 1050.02 232.75Z" stroke="#00B2FF" stroke-width="4.14103"/>
<path d="M1078.24 210.595H1072.65C1068.26 210.595 1064.67 214.188 1064.67 218.579V223.968C1064.67 228.558 1068.26 232.151 1072.65 232.151H1078.24C1082.63 232.151 1086.22 228.558 1086.22 223.968V218.579C1086.22 214.188 1082.63 210.595 1078.24 210.595Z" stroke="#00B2FF" stroke-width="4.14103"/>
<path d="M1131.42 232.75H1131.62L1199.68 232.55C1220.24 232.55 1236.81 215.984 1236.81 195.425V121.575C1236.81 101.016 1220.24 84.25 1199.68 84.25H1131.42C1110.86 84.25 1094.3 101.016 1094.3 121.575V124.569C1094.3 128.161 1097.29 131.155 1100.88 131.155C1104.48 131.155 1107.47 128.161 1107.47 124.569V121.575C1107.47 108.401 1118.25 97.623 1131.42 97.623H1199.68C1212.86 97.623 1223.63 108.401 1223.63 121.575V195.425C1223.63 208.599 1212.86 219.377 1199.68 219.377L1131.42 219.577C1125.03 219.577 1119.05 216.982 1114.46 212.391C1110.06 208 1107.47 201.813 1107.47 195.425V165.685C1107.47 162.093 1104.48 159.099 1100.88 159.099C1097.29 159.099 1094.3 162.093 1094.3 165.685V194.028C1094.3 202.81 1096.69 211.393 1102.08 218.179C1109.27 227.56 1120.04 232.75 1131.42 232.75Z" stroke="#00B2FF" stroke-width="4.14103"/>
</g>
<g filter="url(#filter9_f_9_4)">
<path d="M1050.02 232.75C1053.61 232.75 1056.61 229.756 1056.61 226.163V101.415C1056.61 92.0343 1049.02 84.25 1039.64 84.25H1032.86C1029.26 84.25 1026.27 87.244 1026.27 91.0363C1026.27 94.629 1029.26 97.623 1032.86 97.623H1039.64C1041.64 97.623 1043.43 99.2198 1043.43 101.415V226.163C1043.43 229.756 1046.23 232.75 1050.02 232.75Z" stroke="#0BB4FF" stroke-width="2.54833"/>
<path d="M1078.24 210.595H1072.65C1068.26 210.595 1064.67 214.188 1064.67 218.579V223.968C1064.67 228.558 1068.26 232.151 1072.65 232.151H1078.24C1082.63 232.151 1086.22 228.558 1086.22 223.968V218.579C1086.22 214.188 1082.63 210.595 1078.24 210.595Z" stroke="#0BB4FF" stroke-width="2.54833"/>
<path d="M1131.42 232.75H1131.62L1199.68 232.55C1220.24 232.55 1236.81 215.984 1236.81 195.425V121.575C1236.81 101.016 1220.24 84.25 1199.68 84.25H1131.42C1110.86 84.25 1094.3 101.016 1094.3 121.575V124.569C1094.3 128.161 1097.29 131.155 1100.88 131.155C1104.48 131.155 1107.47 128.161 1107.47 124.569V121.575C1107.47 108.401 1118.25 97.623 1131.42 97.623H1199.68C1212.86 97.623 1223.63 108.401 1223.63 121.575V195.425C1223.63 208.599 1212.86 219.377 1199.68 219.377L1131.42 219.577C1125.03 219.577 1119.05 216.982 1114.46 212.391C1110.06 208 1107.47 201.813 1107.47 195.425V165.685C1107.47 162.093 1104.48 159.099 1100.88 159.099C1097.29 159.099 1094.3 162.093 1094.3 165.685V194.028C1094.3 202.81 1096.69 211.393 1102.08 218.179C1109.27 227.56 1120.04 232.75 1131.42 232.75Z" stroke="#0BB4FF" stroke-width="2.54833"/>
</g>
<g filter="url(#filter10_f_9_4)">
<path d="M1050.02 232.75C1053.61 232.75 1056.61 229.756 1056.61 226.163V101.415C1056.61 92.0343 1049.02 84.25 1039.64 84.25H1032.86C1029.26 84.25 1026.27 87.244 1026.27 91.0363C1026.27 94.629 1029.26 97.623 1032.86 97.623H1039.64C1041.64 97.623 1043.43 99.2198 1043.43 101.415V226.163C1043.43 229.756 1046.23 232.75 1050.02 232.75Z" stroke="white" stroke-width="1.27416"/>
<path d="M1078.24 210.595H1072.65C1068.26 210.595 1064.67 214.188 1064.67 218.579V223.968C1064.67 228.558 1068.26 232.151 1072.65 232.151H1078.24C1082.63 232.151 1086.22 228.558 1086.22 223.968V218.579C1086.22 214.188 1082.63 210.595 1078.24 210.595Z" stroke="white" stroke-width="1.27416"/>
<path d="M1131.42 232.75H1131.62L1199.68 232.55C1220.24 232.55 1236.81 215.984 1236.81 195.425V121.575C1236.81 101.016 1220.24 84.25 1199.68 84.25H1131.42C1110.86 84.25 1094.3 101.016 1094.3 121.575V124.569C1094.3 128.161 1097.29 131.155 1100.88 131.155C1104.48 131.155 1107.47 128.161 1107.47 124.569V121.575C1107.47 108.401 1118.25 97.623 1131.42 97.623H1199.68C1212.86 97.623 1223.63 108.401 1223.63 121.575V195.425C1223.63 208.599 1212.86 219.377 1199.68 219.377L1131.42 219.577C1125.03 219.577 1119.05 216.982 1114.46 212.391C1110.06 208 1107.47 201.813 1107.47 195.425V165.685C1107.47 162.093 1104.48 159.099 1100.88 159.099C1097.29 159.099 1094.3 162.093 1094.3 165.685V194.028C1094.3 202.81 1096.69 211.393 1102.08 218.179C1109.27 227.56 1120.04 232.75 1131.42 232.75Z" stroke="white" stroke-width="1.27416"/>
</g>
<defs>
<filter id="filter0_f_9_4" x="36.5914" y="2.34684" width="913.618" height="269.432" filterUnits="userSpaceOnUse" color-interpolation-filters="sRGB">
<feFlood flood-opacity="0" result="BackgroundImageFix"/>
<feBlend mode="normal" in="SourceGraphic" in2="BackgroundImageFix" result="shape"/>
<feGaussianBlur stdDeviation="19.2319" result="effect1_foregroundBlur_9_4"/>
</filter>
<filter id="filter1_f_9_4" x="60.166" y="25.9214" width="869.453" height="222.283" filterUnits="userSpaceOnUse" color-interpolation-filters="sRGB">
<feFlood flood-opacity="0" result="BackgroundImageFix"/>
<feBlend mode="normal" in="SourceGraphic" in2="BackgroundImageFix" result="shape"/>
<feGaussianBlur stdDeviation="6.41064" result="effect1_foregroundBlur_9_4"/>
</filter>
<filter id="filter2_ddi_9_4" x="58.3875" y="36.9643" width="870.026" height="225.84" filterUnits="userSpaceOnUse" color-interpolation-filters="sRGB">
<feFlood flood-opacity="0" result="BackgroundImageFix"/>
<feColorMatrix in="SourceAlpha" type="matrix" values="0 0 0 0 0 0 0 0 0 0 0 0 0 0 0 0 0 0 127 0" result="hardAlpha"/>
<feOffset dy="13.4417"/>
<feGaussianBlur stdDeviation="5.16987"/>
<feColorMatrix type="matrix" values="0 0 0 0 0.224 0 0 0 0 0.15 0 0 0 0 0 0 0 0 0.7 0"/>
<feBlend mode="multiply" in2="BackgroundImageFix" result="effect1_dropShadow_9_4"/>
<feColorMatrix in="SourceAlpha" type="matrix" values="0 0 0 0 0 0 0 0 0 0 0 0 0 0 0 0 0 0 127 0" result="hardAlpha"/>
<feOffset dy="12.8213"/>
<feGaussianBlur stdDeviation="8.33383"/>
<feColorMatrix type="matrix" values="0 0 0 0 0.56 0 0 0 0 0.44 0 0 0 0 0 0 0 0 1 0"/>
<feBlend mode="color-dodge" in2="effect1_dropShadow_9_4" result="effect2_dropShadow_9_4"/>
<feBlend mode="normal" in="SourceGraphic" in2="effect2_dropShadow_9_4" result="shape"/>
<feColorMatrix in="SourceAlpha" type="matrix" values="0 0 0 0 0 0 0 0 0 0 0 0 0 0 0 0 0 0 127 0" result="hardAlpha"/>
<feOffset dx="-1.34417" dy="2.68833"/>
<feGaussianBlur stdDeviation="0.672083"/>
<feComposite in2="hardAlpha" operator="arithmetic" k2="-1" k3="1"/>
<feColorMatrix type="matrix" values="0 0 0 0 1 0 0 0 0 1 0 0 0 0 1 0 0 0 0.5 0"/>
<feBlend mode="normal" in2="shape" result="effect3_innerShadow_9_4"/>
</filter>
<filter id="filter3_f_9_4" x="75.5722" y="41.3277" width="831.927" height="191.471" filterUnits="userSpaceOnUse" color-interpolation-filters="sRGB">
<feFlood flood-opacity="0" result="BackgroundImageFix"/>
<feBlend mode="normal" in="SourceGraphic" in2="BackgroundImageFix" result="shape"/>
<feGaussianBlur stdDeviation="1.03397" result="effect1_foregroundBlur_9_4"/>
</filter>
<filter id="filter4_f_9_4" x="78.3294" y="44.0849" width="823.429" height="185.956" filterUnits="userSpaceOnUse" color-interpolation-filters="sRGB">
<feFlood flood-opacity="0" result="BackgroundImageFix"/>
<feBlend mode="normal" in="SourceGraphic" in2="BackgroundImageFix" result="shape"/>
<feGaussianBlur stdDeviation="0.689316" result="effect1_foregroundBlur_9_4"/>
</filter>
<filter id="filter5_f_9_4" x="986.676" y="50.8609" width="289.725" height="215.278" filterUnits="userSpaceOnUse" color-interpolation-filters="sRGB">
<feFlood flood-opacity="0" result="BackgroundImageFix"/>
<feBlend mode="normal" in="SourceGraphic" in2="BackgroundImageFix" result="shape"/>
<feGaussianBlur stdDeviation="9.26955" result="effect1_foregroundBlur_9_4"/>
</filter>
<filter id="filter6_f_9_4" x="1005.66" y="63.6404" width="251.758" height="189.719" filterUnits="userSpaceOnUse" color-interpolation-filters="sRGB">
<feFlood flood-opacity="0" result="BackgroundImageFix"/>
<feBlend mode="normal" in="SourceGraphic" in2="BackgroundImageFix" result="shape"/>
<feGaussianBlur stdDeviation="9.26955" result="effect1_foregroundBlur_9_4"/>
</filter>
<filter id="filter7_f_9_4" x="1017.38" y="75.3627" width="228.313" height="166.275" filterUnits="userSpaceOnUse" color-interpolation-filters="sRGB">
<feFlood flood-opacity="0" result="BackgroundImageFix"/>
<feBlend mode="normal" in="SourceGraphic" in2="BackgroundImageFix" result="shape"/>
<feGaussianBlur stdDeviation="3.08985" result="effect1_foregroundBlur_9_4"/>
</filter>
<filter id="filter8_ddi_9_4" x="1016.17" y="80.3256" width="230.747" height="168.708" filterUnits="userSpaceOnUse" color-interpolation-filters="sRGB">
<feFlood flood-opacity="0" result="BackgroundImageFix"/>
<feColorMatrix in="SourceAlpha" type="matrix" values="0 0 0 0 0 0 0 0 0 0 0 0 0 0 0 0 0 0 127 0" result="hardAlpha"/>
<feOffset dy="4.14103"/>
<feGaussianBlur stdDeviation="1.59271"/>
<feColorMatrix type="matrix" values="0 0 0 0 0 0 0 0 0 0.051 0 0 0 0 0.082 0 0 0 0.7 0"/>
<feBlend mode="multiply" in2="BackgroundImageFix" result="effect1_dropShadow_9_4"/>
<feColorMatrix in="SourceAlpha" type="matrix" values="0 0 0 0 0 0 0 0 0 0 0 0 0 0 0 0 0 0 127 0" result="hardAlpha"/>
<feOffset dy="6.1797"/>
<feGaussianBlur stdDeviation="4.0168"/>
<feColorMatrix type="matrix" values="0 0 0 0 0 0 0 0 0 0.4 0 0 0 0 1 0 0 0 1 0"/>
<feBlend mode="color-dodge" in2="effect1_dropShadow_9_4" result="effect2_dropShadow_9_4"/>
<feBlend mode="normal" in="SourceGraphic" in2="effect2_dropShadow_9_4" result="shape"/>
<feColorMatrix in="SourceAlpha" type="matrix" values="0 0 0 0 0 0 0 0 0 0 0 0 0 0 0 0 0 0 127 0" result="hardAlpha"/>
<feOffset dx="-0.414103" dy="0.828207"/>
<feGaussianBlur stdDeviation="0.207052"/>
<feComposite in2="hardAlpha" operator="arithmetic" k2="-1" k3="1"/>
<feColorMatrix type="matrix" values="0 0 0 0 1 0 0 0 0 1 0 0 0 0 1 0 0 0 0.5 0"/>
<feBlend mode="normal" in2="shape" result="effect3_innerShadow_9_4"/>
</filter>
<filter id="filter9_f_9_4" x="1024.36" y="82.3388" width="214.361" height="152.322" filterUnits="userSpaceOnUse" color-interpolation-filters="sRGB">
<feFlood flood-opacity="0" result="BackgroundImageFix"/>
<feBlend mode="normal" in="SourceGraphic" in2="BackgroundImageFix" result="shape"/>
<feGaussianBlur stdDeviation="0.318541" result="effect1_foregroundBlur_9_4"/>
</filter>
<filter id="filter10_f_9_4" x="1025.21" y="83.1882" width="212.662" height="150.624" filterUnits="userSpaceOnUse" color-interpolation-filters="sRGB">
<feFlood flood-opacity="0" result="BackgroundImageFix"/>
<feBlend mode="normal" in="SourceGraphic" in2="BackgroundImageFix" result="shape"/>
<feGaussianBlur stdDeviation="0.212361" result="effect1_foregroundBlur_9_4"/>
</filter>
</defs>
</svg>
