<svg width="894" height="389" viewBox="0 0 894 389" fill="none" xmlns="http://www.w3.org/2000/svg">
<g filter="url(#filter0_d_1_19)">
<path d="M853.074 59.5H498.574C456.574 59.5 369.08 60.5 355.074 60.5C337.574 60.5 337.574 50 333.574 39.5C329.955 30 325.574 26 317.574 26H101.074C97.9075 26 90.4741 29.5 86.0741 43.5C81.6741 57.5 74.9075 60.3333 72.0741 60H38.5741C27.3741 60 25.5741 70 26.0741 75V349C26.0741 358.5 35.0741 363 39.0741 363H856.074C861.074 363 867.574 356.5 867.574 347V73.5C867.574 63.5 860.574 59.5 853.074 59.5Z" fill="url(#paint0_linear_1_19)"/>
<path d="M72.191 59.0069L72.1327 59H72.0741H38.5741C32.6097 59 29.0313 61.6972 27.0686 65.1285C25.161 68.4634 24.8194 72.4087 25.0741 75.049V349C25.0741 354.102 27.5018 357.865 30.4305 360.328C33.3201 362.758 36.7905 364 39.0741 364H856.074C858.981 364 862.116 362.143 864.48 359.187C866.87 356.2 868.574 351.98 868.574 347V73.5C868.574 68.2453 866.723 64.4482 863.779 61.9832C860.863 59.5422 856.987 58.5 853.074 58.5H498.574C477.569 58.5 445.191 58.75 416.318 59C408.58 59.067 401.094 59.134 394.146 59.1962C375.163 59.3661 360.197 59.5 355.074 59.5C350.794 59.5 347.664 58.8573 345.309 57.7851C342.968 56.72 341.339 55.2075 340.088 53.3738C338.823 51.5207 337.936 49.3291 337.107 46.8893C336.821 46.0481 336.539 45.167 336.25 44.2631C335.718 42.5976 335.16 40.8552 334.509 39.144C332.675 34.3317 330.601 30.7753 327.868 28.4288C325.101 26.0529 321.758 25 317.574 25H101.074C97.2899 25 89.5873 28.9865 85.1201 43.2002C80.7642 57.06 74.2794 59.2525 72.191 59.0069Z" stroke="white" stroke-opacity="0.4" stroke-width="2"/>
<mask id="mask0_1_19" style="mask-type:alpha" maskUnits="userSpaceOnUse" x="26" y="26" width="842" height="337">
<path d="M853.074 59.5H498.574C456.574 59.5 369.08 60.5 355.074 60.5C337.574 60.5 337.574 50 333.574 39.5C329.955 30 325.574 26 317.574 26H101.074C97.9075 26 90.4741 29.5 86.0741 43.5C81.6741 57.5 74.9075 60.3333 72.0741 60H38.5741C27.3741 60 25.5741 70 26.0741 75V349C26.0741 358.5 35.0741 363 39.0741 363H856.074C861.074 363 867.574 356.5 867.574 347V73.5C867.574 63.5 860.574 59.5 853.074 59.5Z" fill="url(#paint1_linear_1_19)"/>
</mask>
<g mask="url(#mask0_1_19)">
<g filter="url(#filter1_f_1_19)">
<path d="M653 26C1006.5 116.5 531.5 148.5 415.5 157.5C281 174.5 157.091 327.5 61.5 327.5C-47.5762 327.5 -56 182.248 -56 74C-56 -34.2478 32.4238 -122 141.5 -122C250.576 -122 653 -82.2478 653 26Z" fill="#2C155D" fill-opacity="0.26"/>
</g>
<g filter="url(#filter2_f_1_19)">
<path d="M178.535 10.2822C204.535 70.7822 157.096 170.497 120.535 174.782C78.1418 182.876 0.163891 174.782 -29.9654 174.782C-64.3449 174.782 -67 105.63 -67 54.0948C-67 2.55967 -39.1299 -39.2178 -4.75029 -39.2178C29.6293 -39.2178 122.035 -50.2177 178.535 10.2822Z" fill="#2C155D"/>
</g>
<g filter="url(#filter3_f_1_19)">
<path d="M795 370C795 435.722 710.83 489 607 489C503.17 489 400 446.222 400 380.5C400 314.778 474 330.5 583.5 264.5C700.5 219.5 795 304.278 795 370Z" fill="#2C155D" fill-opacity="0.28"/>
</g>
</g>
</g>
<defs>
<filter id="filter0_d_1_19" x="0.000244141" y="0" width="893.574" height="389" filterUnits="userSpaceOnUse" color-interpolation-filters="sRGB">
<feFlood flood-opacity="0" result="BackgroundImageFix"/>
<feColorMatrix in="SourceAlpha" type="matrix" values="0 0 0 0 0 0 0 0 0 0 0 0 0 0 0 0 0 0 127 0" result="hardAlpha"/>
<feOffset/>
<feGaussianBlur stdDeviation="12"/>
<feComposite in2="hardAlpha" operator="out"/>
<feColorMatrix type="matrix" values="0 0 0 0 0 0 0 0 0 0 0 0 0 0 0 0 0 0 0.54 0"/>
<feBlend mode="normal" in2="BackgroundImageFix" result="effect1_dropShadow_1_19"/>
<feBlend mode="normal" in="SourceGraphic" in2="effect1_dropShadow_1_19" result="shape"/>
</filter>
<filter id="filter1_f_1_19" x="-158" y="-224" width="1041.59" height="653.5" filterUnits="userSpaceOnUse" color-interpolation-filters="sRGB">
<feFlood flood-opacity="0" result="BackgroundImageFix"/>
<feBlend mode="normal" in="SourceGraphic" in2="BackgroundImageFix" result="shape"/>
<feGaussianBlur stdDeviation="51" result="effect1_foregroundBlur_1_19"/>
</filter>
<filter id="filter2_f_1_19" x="-169" y="-142" width="456.997" height="422.379" filterUnits="userSpaceOnUse" color-interpolation-filters="sRGB">
<feFlood flood-opacity="0" result="BackgroundImageFix"/>
<feBlend mode="normal" in="SourceGraphic" in2="BackgroundImageFix" result="shape"/>
<feGaussianBlur stdDeviation="51" result="effect1_foregroundBlur_1_19"/>
</filter>
<filter id="filter3_f_1_19" x="298" y="149.876" width="599" height="441.124" filterUnits="userSpaceOnUse" color-interpolation-filters="sRGB">
<feFlood flood-opacity="0" result="BackgroundImageFix"/>
<feBlend mode="normal" in="SourceGraphic" in2="BackgroundImageFix" result="shape"/>
<feGaussianBlur stdDeviation="51" result="effect1_foregroundBlur_1_19"/>
</filter>
<linearGradient id="paint0_linear_1_19" x1="26" y1="363" x2="868" y2="26" gradientUnits="userSpaceOnUse">
<stop stop-color="#47195D"/>
<stop offset="1" stop-color="#9B2C53"/>
</linearGradient>
<linearGradient id="paint1_linear_1_19" x1="26" y1="363" x2="868" y2="26" gradientUnits="userSpaceOnUse">
<stop stop-color="#47195D"/>
<stop offset="1" stop-color="#9B2C53"/>
</linearGradient>
</defs>
</svg>
